HIERARCHY
ROOT hip
{
  OFFSET 0 0 0
  CHANNELS 6 Xposition Yposition Zposition Zrotation Yrotation Xrotation
  JOINT abdomen
  {
    OFFSET 0 20.6881 -0.73152
    CHANNELS 3 Zrotation Xrotation Yrotation
    JOINT chest
    {
      OFFSET 0 11.7043 -0.48768
      CHANNELS 3 Zrotation Xrotation Yrotation
      JOINT neck
      {
        OFFSET 0 22.1894 -2.19456
        CHANNELS 3 Zrotation Xrotation Yrotation
        JOINT head
        {
          OFFSET -0.24384 7.07133 1.2192
          CHANNELS 3 Zrotation Xrotation Yrotation
          JOINT leftEye
          {
            OFFSET 4.14528 8.04674 8.04672
            CHANNELS 3 Zrotation Xrotation Yrotation
            End Site
            {
              OFFSET 1 0 0
            }
          }
          JOINT rightEye
          {
            OFFSET -3.6576 8.04674 8.04672
            CHANNELS 3 Zrotation Xrotation Yrotation
            End Site
            {
              OFFSET 1 0 0
            }
          }
        }
      }
      JOINT rCollar
      {
        OFFSET -2.68224 19.2634 -4.8768
        CHANNELS 3 Zrotation Xrotation Yrotation
        JOINT rShldr
        {
          OFFSET -8.77824 -1.95073 1.46304
          CHANNELS 3 Zrotation Xrotation Yrotation
          JOINT rForeArm
          {
            OFFSET -28.1742 -1.7115 0.48768
            CHANNELS 3 Zrotation Xrotation Yrotation
            JOINT rHand
            {
              OFFSET -22.5879 0.773209 7.07136
              CHANNELS 3 Zrotation Xrotation Yrotation
              JOINT rThumb1
              {
                OFFSET -1.2192 -0.487915 3.41376
                CHANNELS 3 Zrotation Xrotation Yrotation
                JOINT rThumb2
                {
                  OFFSET -3.37035 -0.52449 3.41376
                  CHANNELS 3 Zrotation Xrotation Yrotation
                  End Site
                  {
                    OFFSET -1.78271 -1.18214 1.43049
                  }
                }
              }
              JOINT rIndex1
              {
                OFFSET -7.75947 0.938293 5.60832
                CHANNELS 3 Zrotation Xrotation Yrotation
                JOINT rIndex2
                {
                  OFFSET -2.54057 -0.884171 1.56538
                  CHANNELS 3 Zrotation Xrotation Yrotation
                  End Site
                  {
                    OFFSET -1.62519 -0.234802 1.16502
                  }
                }
              }
              JOINT rMid1
              {
                OFFSET -8.24714 1.18213 3.41376
                CHANNELS 3 Zrotation Xrotation Yrotation
                JOINT rMid2
                {
                  OFFSET -3.10165 -0.590103 1.0647
                  CHANNELS 3 Zrotation Xrotation Yrotation
                  End Site
                  {
                    OFFSET -2.48547 -0.328903 0.83742
                  }
                }
              }
              JOINT rRing1
              {
                OFFSET -8.82822 0.546677 1.51678
                CHANNELS 3 Zrotation Xrotation Yrotation
                JOINT rRing2
                {
                  OFFSET -2.60934 -0.819778 -0.0198488
                  CHANNELS 3 Zrotation Xrotation Yrotation
                  End Site
                  {
                    OFFSET -2.33842 -0.294052 0.168128
                  }
                }
              }
              JOINT rPinky1
              {
                OFFSET -8.27202 -0.0477905 -0.4584
                CHANNELS 3 Zrotation Xrotation Yrotation
                JOINT rPinky2
                {
                  OFFSET -1.82734 -0.647385 -0.700984
                  CHANNELS 3 Zrotation Xrotation Yrotation
                  End Site
                  {
                    OFFSET -1.69225 -0.51767 -0.607171
                  }
                }
              }
            }
          }
        }
      }
      JOINT lCollar
      {
        OFFSET 2.68224 19.2634 -4.8768
        CHANNELS 3 Zrotation Xrotation Yrotation
        JOINT lShldr
        {
          OFFSET 8.77824 -1.95073 1.46304
          CHANNELS 3 Zrotation Xrotation Yrotation
          JOINT lForeArm
          {
            OFFSET 28.1742 -1.7115 0.48768
            CHANNELS 3 Zrotation Xrotation Yrotation
            JOINT lHand
            {
              OFFSET 22.5879 0.773209 7.07136
              CHANNELS 3 Zrotation Xrotation Yrotation
              JOINT lThumb1
              {
                OFFSET 1.2192 -0.487915 3.41376
                CHANNELS 3 Zrotation Xrotation Yrotation
                JOINT lThumb2
                {
                  OFFSET 3.37035 -0.52449 3.41376
                  CHANNELS 3 Zrotation Xrotation Yrotation
                  End Site
                  {
                    OFFSET 1.78271 -1.18214 1.43049
                  }
                }
              }
              JOINT lIndex1
              {
                OFFSET 7.75947 0.938293 5.60832
                CHANNELS 3 Zrotation Xrotation Yrotation
                JOINT lIndex2
                {
                  OFFSET 2.54057 -0.884171 1.56538
                  CHANNELS 3 Zrotation Xrotation Yrotation
                  End Site
                  {
                    OFFSET 1.62519 -0.234802 1.16502
                  }
                }
              }
              JOINT lMid1
              {
                OFFSET 8.24714 1.18213 3.41376
                CHANNELS 3 Zrotation Xrotation Yrotation
                JOINT lMid2
                {
                  OFFSET 3.10165 -0.590103 1.0647
                  CHANNELS 3 Zrotation Xrotation Yrotation
                  End Site
                  {
                    OFFSET 2.48547 -0.328903 0.83742
                  }
                }
              }
              JOINT lRing1
              {
                OFFSET 8.82822 0.546677 1.51678
                CHANNELS 3 Zrotation Xrotation Yrotation
                JOINT lRing2
                {
                  OFFSET 2.60934 -0.819778 -0.0198488
                  CHANNELS 3 Zrotation Xrotation Yrotation
                  End Site
                  {
                    OFFSET 2.33842 -0.294052 0.168128
                  }
                }
              }
              JOINT lPinky1
              {
                OFFSET 8.27202 -0.0477905 -0.4584
                CHANNELS 3 Zrotation Xrotation Yrotation
                JOINT lPinky2
                {
                  OFFSET 1.82734 -0.647385 -0.700984
                  CHANNELS 3 Zrotation Xrotation Yrotation
                  End Site
                  {
                    OFFSET 1.69225 -0.51767 -0.607171
                  }
                }
              }
            }
          }
        }
      }
    }
  }
  JOINT rButtock
  {
    OFFSET -8.77824 4.35084 1.2192
    CHANNELS 3 Zrotation Xrotation Yrotation
    JOINT rThigh
    {
      OFFSET 0 -1.70687 -2.19456
      CHANNELS 3 Zrotation Xrotation Yrotation
      JOINT rShin
      {
        OFFSET 0 -36.8199 0.73152
        CHANNELS 3 Zrotation Xrotation Yrotation
        JOINT rFoot
        {
          OFFSET 0.73152 -45.1104 -5.12064
          CHANNELS 3 Zrotation Xrotation Yrotation
          End Site
          {
            OFFSET -1.1221 -3.69964 12.103
          }
        }
      }
    }
  }
  JOINT lButtock
  {
    OFFSET 8.77824 4.35084 1.2192
    CHANNELS 3 Zrotation Xrotation Yrotation
    JOINT lThigh
    {
      OFFSET 0 -1.70687 -2.19456
      CHANNELS 3 Zrotation Xrotation Yrotation
      JOINT lShin
      {
        OFFSET 0 -36.8199 0.73152
        CHANNELS 3 Zrotation Xrotation Yrotation
        JOINT lFoot
        {
          OFFSET -0.73152 -45.1104 -5.12064
          CHANNELS 3 Zrotation Xrotation Yrotation
          End Site
          {
            OFFSET 1.1221 -3.69964 12.103
          }
        }
      }
    }
  }
}
MOTION
Frames:	5
Frame Time:	0.03333
-3.24435 52.1702 10.3484 -16.242895126342773 -29.081602096557617 13.449893951416016 10.55578327178955 9.681809425354004 5.1495561599731445 1.3815457820892334 -8.47911262512207 1.465225100517273 -0.001639828784391284 12.119501113891602 7.127403736114502 4.585999011993408 -26.452898025512695 15.288816452026367 -0.0 0.0 -0.0 -0.0 0.0 -0.0 -0.0 -0.0 -0.0 107.8070068359375 47.37159729003906 -56.15870666503906 -26.987409591674805 -44.05299377441406 91.54449462890625 -9.653894424438477 -62.68458557128906 -15.788433074951172 -0.0 0.0 0.0 -0.0 0.0 0.0 -0.0 0.0 0.0 7.730902194976807 5.47491455078125 0.4173222780227661 -0.0 0.0 0.0 2.905566453933716 0.9650754332542419 0.10300818830728531 -0.0 0.0 0.0 10.278596878051758 0.7318810820579529 0.026273518800735474 -0.0 0.0 0.0 2.221662998199463 -0.7334509491920471 -0.20832103490829468 -0.0 -0.0 -0.0 -60.63770294189453 -19.815298080444336 -80.3938980102539 7.897814750671387 -2.96055006980896 -13.914680480957031 9.705676078796387 62.76679992675781 -15.847161293029785 0.0 0.0 -0.0 0.0 0.0 -0.0 0.0 0.0 -0.0 -7.730902194976807 5.47491455078125 -0.4173222780227661 0.0 0.0 -0.0 -2.905566453933716 0.9650754332542419 -0.10300818830728531 0.0 0.0 -0.0 -10.278596878051758 0.7318810820579529 -0.026273518800735474 0.0 0.0 -0.0 -2.221662998199463 -0.7334509491920471 0.20832103490829468 -0.0 0.0 -0.0 -13.362988471984863 8.88184642791748 -4.502584457397461 0.03337385505437851 33.082603454589844 2.3365461826324463 -7.826322555541992 -16.758712768554688 -30.01449203491211 0.0 0.0 0.0 81.56497955322266 -54.83599853515625 71.59748077392578 2.857349395751953 73.06719970703125 -2.6223514080047607 -0.4646506607532501 4.354169845581055 -6.176321983337402
-3.32989 51.9194 10.6123 -16.482189178466797 -28.814695358276367 13.512809753417969 10.955910682678223 9.666871070861816 5.030252456665039 1.4251917600631714 -8.442483901977539 1.439005970954895 0.055822085589170456 12.151298522949219 7.122586250305176 4.499610900878906 -26.469501495361328 15.254593849182129 -0.0 0.0 -0.0 -0.0 0.0 -0.0 -0.0 0.0 -0.0 107.30499267578125 47.169288635253906 -55.7677001953125 -27.11439323425293 -43.7052116394043 90.8568115234375 -8.69863224029541 -61.03152847290039 -14.705221176147461 -0.0 0.0 -0.0 -0.0 0.0 -0.0 -0.0 0.0 -0.0 7.730902194976807 5.47491455078125 0.4173222780227661 -0.0 0.0 -0.0 2.905566453933716 0.9650754332542419 0.10300818830728531 -0.0 0.0 -0.0 10.278596878051758 0.7318810820579529 0.026273518800735474 -0.0 0.0 -0.0 2.221662998199463 -0.7334509491920471 -0.20832103490829468 -0.0 0.0 -0.0 -60.67928695678711 -19.751300811767578 -80.41619110107422 7.926770210266113 -2.9740724563598633 -13.967094421386719 9.555948257446289 62.522987365722656 -15.678606986999512 0.0 0.0 -0.0 0.0 0.0 -0.0 0.0 0.0 -0.0 -7.730902194976807 5.47491455078125 -0.4173222780227661 0.0 0.0 -0.0 -2.905566453933716 0.9650754332542419 -0.10300818830728531 0.0 0.0 -0.0 -10.278596878051758 0.7318810820579529 -0.026273518800735474 0.0 0.0 -0.0 -2.221662998199463 -0.7334509491920471 0.20832103490829468 -0.0 0.0 -0.0 -13.24029541015625 9.25452995300293 -4.731019496917725 0.0378866046667099 33.0651969909668 2.3641085624694824 -7.8570685386657715 -17.00780487060547 -29.850799560546875 0.0 0.0 0.0 82.60680389404297 -54.87600326538086 72.44300079345703 3.0462982654571533 73.83120727539062 -2.7892279624938965 -0.48457032442092896 4.022215366363525 -6.361342430114746
-3.41381 51.669399999999996 10.8593 -16.674705505371094 -28.61519432067871 13.587895393371582 11.252089500427246 9.597317695617676 4.935989856719971 1.4648398160934448 -8.396903991699219 1.4163687229156494 0.10541219264268875 12.175999641418457 7.103619575500488 4.50250768661499 -26.43318748474121 15.210108757019043 -0.0 0.0 -0.0 -0.0 0.0 -0.0 -0.0 0.0 -0.0 106.97998809814453 47.07969665527344 -55.488197326660156 -27.201904296875 -43.44850158691406 90.3604965209961 -8.17959213256836 -59.98551940917969 -14.095928192138672 -0.0 -0.0 -0.0 -0.0 -0.0 -0.0 -0.0 -0.0 -0.0 7.730902194976807 5.47491455078125 0.4173222780227661 -0.0 -0.0 -0.0 2.905566453933716 0.9650754332542419 0.10300818830728531 -0.0 -0.0 -0.0 10.278596878051758 0.7318810820579529 0.026273518800735474 -0.0 -0.0 -0.0 2.221662998199463 -0.7334509491920471 -0.20832103490829468 -0.0 0.0 -0.0 -60.39588928222656 -19.686004638671875 -80.29878997802734 7.97538948059082 -2.998844861984253 -14.055593490600586 9.40406608581543 62.27090835571289 -15.507192611694336 -0.0 0.0 0.0 -0.0 0.0 0.0 -0.0 0.0 0.0 -7.730902194976807 5.47491455078125 -0.4173222780227661 -0.0 0.0 0.0 -2.905566453933716 0.9650754332542419 -0.10300818830728531 -0.0 0.0 0.0 -10.278596878051758 0.7318810820579529 -0.026273518800735474 -0.0 0.0 0.0 -2.221662998199463 -0.7334509491920471 0.20832103490829468 -0.0 0.0 -0.0 -13.159700393676758 9.591592788696289 -4.876924514770508 0.0426887609064579 33.006004333496094 2.389618158340454 -7.904050350189209 -17.189294815063477 -29.813608169555664 0.0 0.0 0.0 83.61119079589844 -54.84809494018555 73.33148956298828 3.2455060482025146 74.5584945678711 -2.9656620025634766 -0.5047274231910706 3.6969172954559326 -6.540494441986084
-3.4908 51.427 11.0974 -16.80080223083496 -28.48140525817871 13.659610748291016 11.44420051574707 9.473071098327637 4.8667521476745605 1.5008642673492432 -8.342547416687012 1.3972676992416382 0.14777027070522308 12.19339656829834 7.070402145385742 4.594549655914307 -26.343896865844727 15.155587196350098 -0.0 0.0 -0.0 -0.0 0.0 -0.0 -0.0 -0.0 -0.0 106.82899475097656 47.10447692871094 -55.3169059753418 -27.256500244140625 -43.28790283203125 90.04579162597656 -7.943881511688232 -59.55911636352539 -13.83691692352295 -0.0 -0.0 -0.0 -0.0 -0.0 -0.0 -0.0 -0.0 -0.0 7.730902194976807 5.47491455078125 0.4173222780227661 -0.0 -0.0 -0.0 2.905566453933716 0.9650754332542419 0.10300818830728531 -0.0 -0.0 -0.0 10.278596878051758 0.7318810820579529 0.026273518800735474 -0.0 -0.0 -0.0 2.221662998199463 -0.7334509491920471 -0.20832103490829468 -0.0 -0.0 -0.0 -59.78810501098633 -19.616899490356445 -80.04200744628906 8.043534278869629 -3.0347907543182373 -14.18019962310791 9.250426292419434 62.01058578491211 -15.333416938781738 -0.0 -0.0 -0.0 -0.0 -0.0 -0.0 -0.0 -0.0 -0.0 -7.730902194976807 5.47491455078125 -0.4173222780227661 -0.0 -0.0 -0.0 -2.905566453933716 0.9650754332542419 -0.10300818830728531 -0.0 -0.0 -0.0 -10.278596878051758 0.7318810820579529 -0.026273518800735474 -0.0 -0.0 -0.0 -2.221662998199463 -0.7334509491920471 0.20832103490829468 -0.0 0.0 -0.0 -13.123104095458984 9.893315315246582 -4.940053939819336 0.04787374287843704 32.90499496459961 2.4130170345306396 -7.968464374542236 -17.30249786376953 -29.902896881103516 0.0 0.0 0.0 84.57301330566406 -54.751102447509766 74.25680541992188 3.452786922454834 75.24918365478516 -3.1491527557373047 -0.52424556016922 3.3782882690429688 -6.71378755569458
-3.5560500000000004 51.200500000000005 11.3314 -16.904987335205078 -28.38890266418457 13.732503890991211 11.670101165771484 9.351683616638184 4.794288158416748 1.5054312944412231 -8.293696403503418 1.3762779235839844 0.1846572905778885 12.217988967895508 7.041877269744873 4.581596851348877 -26.233280181884766 15.084036827087402 -0.0 0.0 -0.0 -0.0 0.0 -0.0 -0.0 -0.0 -0.0 106.70098876953125 47.07788848876953 -55.204498291015625 -27.28060531616211 -43.21429443359375 89.90369415283203 -7.860374450683594 -59.38650894165039 -13.739909172058105 -0.0 -0.0 -0.0 -0.0 -0.0 -0.0 -0.0 -0.0 -0.0 7.730902194976807 5.47491455078125 0.4173222780227661 -0.0 -0.0 -0.0 2.905566453933716 0.9650754332542419 0.10300818830728531 -0.0 -0.0 -0.0 10.278596878051758 0.7318810820579529 0.026273518800735474 -0.0 -0.0 -0.0 2.221662998199463 -0.7334509491920471 -0.20832103490829468 -0.0 -0.0 -0.0 -59.3721923828125 -19.581600189208984 -79.8125991821289 8.083827018737793 -3.0546176433563232 -14.253599166870117 9.18954849243164 61.90580749511719 -15.26449203491211 -0.0 -0.0 -0.0 -0.0 -0.0 -0.0 -0.0 -0.0 -0.0 -7.730902194976807 5.47491455078125 -0.4173222780227661 -0.0 -0.0 -0.0 -2.905566453933716 0.9650754332542419 -0.10300818830728531 -0.0 -0.0 -0.0 -10.278596878051758 0.7318810820579529 -0.026273518800735474 -0.0 -0.0 -0.0 -2.221662998199463 -0.7334509491920471 0.20832103490829468 -0.0 0.0 -0.0 -13.083698272705078 10.222899436950684 -4.982317924499512 0.05307528004050255 32.74050521850586 2.4330873489379883 -8.008076667785645 -17.35097885131836 -30.010303497314453 0.0 0.0 0.0 85.44729614257812 -54.65309524536133 75.09540557861328 3.667083263397217 75.9002914428711 -3.3416402339935303 -0.5471388697624207 3.0570147037506104 -6.8712921142578125
